<?xml version="1.0" standalone="no"?>
<!DOCTYPE svg PUBLIC "-//W3C//DTD SVG 20010904//EN"
 "http://www.w3.org/TR/2001/REC-SVG-20010904/DTD/svg10.dtd">
<svg version="1.0" xmlns="http://www.w3.org/2000/svg"
 width="7065.000000pt" height="1926.000000pt" viewBox="0 0 7065.000000 1926.000000"
 preserveAspectRatio="xMidYMid meet">

<g transform="translate(0.000000,1926.000000) scale(0.100000,-0.100000)"
fill="white" stroke="none">
<path d="M92 19157 l-83 -83 11 -270 c122 -3277 525 -5488 1313 -7214 1149
-2519 3172 -3922 6457 -4479 832 -142 1609 -217 2810 -273 176 -8 2465 -13
8085 -18 7803 -7 7971 -8 8655 -40 1823 -87 3051 -329 4081 -805 937 -433
1715 -1113 2328 -2035 497 -747 906 -1652 1265 -2800 73 -233 184 -623 241
-845 26 -99 53 -204 62 -233 l15 -53 85 3 86 3 54 210 c284 1116 618 2058
1009 2845 298 601 579 1040 963 1500 128 154 496 522 650 650 1154 957 2608
1405 5006 1540 862 48 1128 50 8650 50 7613 0 7652 0 8640 55 3800 211 6188
1068 7713 2770 992 1107 1647 2595 2036 4625 199 1040 328 2255 391 3670 20
456 38 1098 31 1124 -6 24 -152 173 -161 164 -4 -4 -20 -106 -35 -228 -269
-2064 -832 -3653 -1733 -4895 -338 -465 -782 -930 -1232 -1290 -1497 -1196
-3554 -1822 -6455 -1965 -570 -28 -1089 -30 -8065 -30 -6933 0 -7734 -3 -8390
-30 -2297 -95 -3792 -399 -5045 -1026 -1230 -616 -2159 -1551 -2885 -2903
-427 -796 -804 -1818 -1075 -2914 -33 -133 -64 -248 -68 -256 -6 -11 -28 -14
-87 -12 -44 1 -81 4 -83 6 -2 2 -30 113 -62 247 -489 2040 -1201 3544 -2176
4593 -1082 1163 -2541 1829 -4624 2109 -671 91 -1300 138 -2340 178 -206 8
-2659 14 -8170 19 -4331 4 -7909 10 -7950 13 -41 3 -190 10 -330 16 -2428 99
-4255 530 -5616 1326 -966 564 -1753 1346 -2356 2339 -696 1149 -1205 2684
-1488 4490 -17 110 -34 208 -38 218 -6 14 -21 3 -90 -66z"/>
</g>
</svg>
