<?xml version="1.0" encoding="UTF-8" standalone="no"?>
<!-- Created with Inkscape (http://www.inkscape.org/) -->

<svg
   version="1.1"
   id="svg131"
   width="466"
   height="500"
   viewBox="0 0 466.00001 500.00001"
   sodipodi:docname="final2.svg"
   inkscape:version="1.2.2 (b0a84865, 2022-12-01)"
   xmlns:inkscape="http://www.inkscape.org/namespaces/inkscape"
   xmlns:sodipodi="http://sodipodi.sourceforge.net/DTD/sodipodi-0.dtd"
   xmlns="http://www.w3.org/2000/svg"
   xmlns:svg="http://www.w3.org/2000/svg">
  <defs
     id="defs135" />
  <sodipodi:namedview
     id="namedview133"
     pagecolor="#ffffff"
     bordercolor="#000000"
     borderopacity="0.25"
     inkscape:showpageshadow="2"
     inkscape:pageopacity="0.0"
     inkscape:pagecheckerboard="0"
     inkscape:deskcolor="#d1d1d1"
     showgrid="false"
     inkscape:zoom="0.34560845"
     inkscape:cx="435.4639"
     inkscape:cy="303.81202"
     inkscape:window-width="751"
     inkscape:window-height="456"
     inkscape:window-x="2150"
     inkscape:window-y="205"
     inkscape:window-maximized="0"
     inkscape:current-layer="g137" />
  <g
     inkscape:groupmode="layer"
     inkscape:label="Image"
     id="g137">
    <path
       style="fill:#000000;stroke-width:0.808124"
       d="M 216.79835,317.34303 V 168.26876 l 70.38685,0.35673 c 46.97866,0.23809 72.51784,0.65813 76.79454,1.26302 29.81239,4.21667 52.82172,16.27951 65.62307,34.4035 10.27101,14.54161 14.05537,27.12175 14.06625,46.75987 0.0183,33.32296 -16.33416,58.43046 -47.03122,72.21107 -16.36746,7.34774 -28.36346,9.52449 -56.09149,10.17819 l -20.34783,0.4797 -0.21228,66.24822 -0.21237,66.24823 H 303.5834 287.39283 v -65.5622 c 0,-54.72369 -0.18911,-65.71079 -1.14388,-66.46106 -0.79755,-0.62669 -6.39296,-0.83441 -18.47917,-0.68602 l -17.33522,0.21283 -0.21235,66.24822 -0.21235,66.24823 h -16.60575 -16.60576 z m 70.39241,-65.50667 c 0.1568,-41.27912 -0.0382,-56.4228 -0.738,-57.22076 -0.765,-0.87272 -4.38367,-1.04367 -18.4847,-0.87325 l -17.5335,0.2119 -0.21306,57.22051 -0.21307,57.2205 18.48459,-0.21164 18.48455,-0.21164 z m 78.2713,54.30414 c 15.26776,-3.42962 25.99771,-9.26249 33.73894,-18.34078 7.39349,-8.6705 10.33869,-15.83442 12.00314,-29.19663 1.74128,-13.97862 -1.57243,-29.84515 -8.27816,-39.6375 -3.92638,-5.73371 -11.81968,-12.68384 -18.10591,-15.94246 -6.6334,-3.4386 -17.56126,-6.79585 -26.0022,-7.9884 -3.8827,-0.54855 -14.16043,-1.01606 -22.8394,-1.03892 l -15.77995,-0.0415 -0.21486,56.22254 c -0.11818,30.92239 -0.0199,56.70643 0.21901,57.29787 0.71791,1.77896 36.03526,0.73788 45.25939,-1.33416 z"
       id="path301" />
  </g>
</svg>
