<?xml version="1.0" standalone="no"?>
<!DOCTYPE svg PUBLIC "-//W3C//DTD SVG 20010904//EN"
 "http://www.w3.org/TR/2001/REC-SVG-20010904/DTD/svg10.dtd">
<svg version="1.0" xmlns="http://www.w3.org/2000/svg"
 width="200.000000pt" height="200.000000pt" viewBox="0 0 200.000000 200.000000"
 preserveAspectRatio="xMidYMid meet">

<g transform="translate(0.000000,200.000000) scale(0.100000,-0.100000)"
fill="white" stroke="none">
<path d="M287 1712 c-15 -16 -17 -46 -17 -214 0 -176 2 -196 18 -211 10 -10
33 -17 50 -17 49 0 62 28 62 140 l0 95 234 -235 c190 -192 238 -246 262 -295
l29 -60 5 -300 c3 -165 9 -308 14 -318 10 -21 47 -31 80 -23 44 11 48 43 44
348 -7 414 -1 401 -332 736 l-240 242 95 0 c112 0 139 12 139 64 0 62 -13 66
-232 66 -176 0 -196 -2 -211 -18z"/>
<path d="M1287 1712 c-10 -10 -17 -33 -17 -50 0 -49 28 -62 140 -62 l95 0
-208 -208 -209 -209 32 -63 32 -63 224 224 224 224 0 -95 c0 -113 12 -140 64
-140 62 0 66 13 66 232 0 176 -2 196 -18 211 -16 15 -46 17 -214 17 -176 0
-196 -2 -211 -18z"/>
</g>
</svg>
